<svg xmlns="http://www.w3.org/2000/svg" viewBox="0 0 24 24" fill="currentColor" class="w-6 h-6">
  <path fill-rule="evenodd" d="M12 2.25c-5.385 0-9.75 4.365-9.75 9.75s4.365 9.75 9.75 9.75 9.75-4.365 9.75-9.75S17.385 2.25 12 2.25zM8.547 4.505a8.25 8.25 0 1 0 6.906 0 .75.75 0 0 1 .278.615v1.016a.75.75 0 0 1-.278.615 6.751 6.751 0 0 0-6.906 0 .75.75 0 0 1-.278-.615V5.12a.75.75 0 0 1 .278-.615zM11.25 16.5a.75.75 0 0 0 1.5 0v-2.69l.375.375a.75.75 0 0 0 1.06-1.06l-1.5-1.5a.75.75 0 0 0-1.06 0l-1.5 1.5a.75.75 0 1 0 1.06 1.06l.375-.375V16.5z" clip-rule="evenodd" />
</svg> 